<svg xmlns="http://www.w3.org/2000/svg" width="74" height="74" viewBox="0 0 74 74">
    <g fill="none" fill-rule="evenodd">
        <circle cx="37" cy="37" r="37" fill="#FFF"/>
        <path fill="#FF4438" d="M46.796 49.237c-6.367 1.562-11.01-2.368-11.01-6.576 0-4.04 3.931-6.958 8.274-6.958 4.37 0 8.273 2.939 8.273 6.958 0 1.426-.509 2.826-1.411 3.911-.037 1.273.705 3.1 1.375 4.428-1.794-.327-4.346-1.049-5.5-1.763zM33.26 42.661c0-5.24 4.845-9.503 10.8-9.503 1.12 0 2.2.151 3.216.43C47.25 27.435 41.258 23 34.64 23 27.964 23 22 27.489 22 33.63c0 2.176.777 4.316 2.155 5.975.06 1.944-1.076 4.732-2.1 6.762 2.74-.497 6.639-1.6 8.404-2.692 1.015.25 1.992.387 2.943.462a8.519 8.519 0 0 1-.143-1.476z"/>
    </g>
</svg>
