<svg xmlns="http://www.w3.org/2000/svg" xmlns:xlink="http://www.w3.org/1999/xlink" width="193" height="40" viewBox="0 0 193 40">
    <defs>
        <path id="a" d="M0 40h193V0H0z"/>
    </defs>
    <g fill="none" fill-rule="evenodd">
        <path fill="#FF4438" d="M13.99 15.765h8.702l1.743-9.883-9.136 5.463v-3.11l-7.89 4.717.497 2.813z"/>
        <path fill="#FFF" d="M8.653 20h13.292l.415-2.353H8.238zM14.313 31.765h1.972l1.743-9.883H12.57z"/>
        <g>
            <path fill="#FFF" d="M3.53 3.53h23.537V22.8c0 11.493-11.768 13.647-11.768 13.647S3.53 34.294 3.53 22.801V3.53zM0 22.8C0 37.142 15.299 40 15.299 40s15.299-2.858 15.299-17.199V0H0v22.801z"/>
            <mask id="b" fill="#fff">
                <use xlink:href="#a"/>
            </mask>
            <path fill="#FFF" d="M63.549 31.765h3.53V8.235h-3.53zM131.216 31.765h3.531V8.235h-3.53zM105.326 16.941h-11.18V8.235h-3.53v23.53h3.53V20h11.18v11.765h3.53V8.235h-3.53zM112.387 31.765h3.53V20h8.239l.54-3.059h-8.778v-5.647h11.768V8.235h-15.299zM141.808 20h7.65l.539-3.059h-8.189v-5.647h11.18V8.235h-14.71v23.53h15.298v-3.06h-11.768zM160.049 8.235h-3.53v23.53h14.71v-3.06h-11.18zM180.761 28.706h-3.06V11.294h3.06A8.707 8.707 0 0 1 189.47 20a8.707 8.707 0 0 1-8.709 8.706m0-20.47h-6.59v23.529h6.59c6.49 0 12.239-4.24 12.239-11.765s-5.75-11.765-12.239-11.765M51.545 20H44.72v-8.706h6.825a4.359 4.359 0 0 1 4.354 4.353c0 2.4-1.953 4.353-4.354 4.353m7.885-4.353c0-4.74-3.797-7.412-7.885-7.412H41.19v23.53h3.53v-8.706h6.566l5.208 8.706h4.114l-5.69-9.356c2.586-1.06 4.513-3.385 4.513-6.762M73.552 20c0-4.995 4.065-9.059 9.061-9.059 1.39 0 3.06.433 4.237.994V8.638c-1.22-.414-2.879-.756-4.237-.756-6.683 0-12.592 4.367-12.592 12.118 0 7.75 5.909 12.118 12.592 12.118 1.358 0 3.253-.342 4.472-.756v-3.297c-1.177.561-3.082.994-4.472.994-4.996 0-9.061-4.064-9.061-9.06" mask="url(#b)"/>
        </g>
    </g>
</svg>
