<?xml version="1.0" encoding="utf-8"?>
<!-- Generator: Adobe Illustrator 16.0.0, SVG Export Plug-In . SVG Version: 6.00 Build 0)  -->
<!DOCTYPE svg PUBLIC "-//W3C//DTD SVG 1.1//EN" "http://www.w3.org/Graphics/SVG/1.1/DTD/svg11.dtd">
<svg version="1.1" id="Layer_1" xmlns="http://www.w3.org/2000/svg" xmlns:xlink="http://www.w3.org/1999/xlink" x="0px" y="0px"
	 width="193px" height="40px" viewBox="0 0 193 40" enable-background="new 0 0 193 40" xml:space="preserve">
<g>
	<path fill="#FF4438" d="M13.99,15.765h8.702l1.743-9.883l-9.136,5.463v-3.11l-7.89,4.717l0.497,2.813H13.99z"/>
	<path fill="#043171" d="M8.653,20h13.292l0.415-2.353H8.238L8.653,20z M14.313,31.766h1.972l1.743-9.884H12.57L14.313,31.766z"/>
	<g>
		<path fill="#043171" d="M3.53,3.53h23.537V22.8c0,11.493-11.768,13.647-11.768,13.647S3.53,34.294,3.53,22.801V3.53z M0,22.8
			C0,37.143,15.299,40,15.299,40s15.299-2.857,15.299-17.199V0H0V22.8L0,22.8z"/>
		<defs>
			<filter id="Adobe_OpacityMaskFilter" filterUnits="userSpaceOnUse" x="41.19" y="7.882" width="151.81" height="24.236">
				<feColorMatrix  type="matrix" values="1 0 0 0 0  0 1 0 0 0  0 0 1 0 0  0 0 0 1 0"/>
			</filter>
		</defs>
		<mask maskUnits="userSpaceOnUse" x="41.19" y="7.882" width="151.81" height="24.236" id="b">
			<g filter="url(#Adobe_OpacityMaskFilter)">
				<path id="a" fill="#FFFFFF" d="M0,40h193V0H0V40z"/>
			</g>
		</mask>
		<path mask="url(#b)" fill="#043171" d="M63.549,31.766h3.53V8.235h-3.53V31.766z M131.216,31.766h3.531V8.235h-3.53
			L131.216,31.766z M105.326,16.941h-11.18V8.235h-3.53v23.531h3.53V20h11.18v11.766h3.529V8.235h-3.529V16.941z M112.387,31.766
			h3.53V20h8.239l0.539-3.059h-8.777v-5.647h11.768V8.235h-15.299V31.766z M141.809,20h7.649l0.539-3.059h-8.188v-5.647h11.18V8.235
			h-14.711v23.531h15.299v-3.061h-11.768V20z M160.049,8.235h-3.529v23.531h14.709v-3.061h-11.18V8.235z M180.762,28.706h-3.061
			V11.294h3.061c4.809-0.001,8.707,3.896,8.709,8.705c0,0,0,0,0,0.001C189.469,24.809,185.57,28.707,180.762,28.706L180.762,28.706
			 M180.762,8.236h-6.591v23.53h6.591C187.251,31.766,193,27.525,193,20C193,12.475,187.25,8.235,180.762,8.236 M51.545,20H44.72
			v-8.706h6.825c2.403,0.003,4.351,1.95,4.354,4.353C55.899,18.047,53.946,20,51.545,20 M59.43,15.647
			c0-4.74-3.797-7.412-7.885-7.412H41.19v23.531h3.53v-8.707h6.566l5.208,8.707h4.114l-5.69-9.356
			C57.504,21.35,59.431,19.024,59.43,15.647 M73.552,20c0-4.995,4.065-9.059,9.061-9.059c1.39,0,3.06,0.433,4.237,0.994V8.638
			c-1.22-0.414-2.879-0.756-4.237-0.756c-6.683,0-12.592,4.367-12.592,12.118c0,7.75,5.909,12.118,12.592,12.118
			c1.358,0,3.253-0.343,4.472-0.757v-3.297c-1.177,0.562-3.082,0.994-4.472,0.994C77.617,29.059,73.552,24.995,73.552,20"/>
	</g>
</g>
</svg>
