<svg xmlns="http://www.w3.org/2000/svg" width="24" height="20" viewBox="0 0 24 20">
    <path fill="#FFF" fill-rule="nonzero" d="M21.533 4.86c.015.213.015.426.015.64 0 6.505-4.949 14-13.995 14-2.786 0-5.375-.807-7.553-2.209.396.046.777.061 1.188.061 2.3 0 4.416-.777 6.106-2.102a4.928 4.928 0 0 1-4.599-3.413 6.2 6.2 0 0 0 .93.076 5.2 5.2 0 0 0 1.294-.167 4.92 4.92 0 0 1-3.944-4.83v-.06a4.952 4.952 0 0 0 2.223.624 4.918 4.918 0 0 1-2.193-4.098c0-.914.244-1.752.67-2.483a13.98 13.98 0 0 0 10.142 5.149 5.557 5.557 0 0 1-.122-1.127A4.918 4.918 0 0 1 16.615 0c1.415 0 2.695.594 3.593 1.554A9.682 9.682 0 0 0 23.33.366a4.907 4.907 0 0 1-2.162 2.711c.99-.106 1.949-.38 2.832-.761a10.576 10.576 0 0 1-2.467 2.544z" opacity=".4"/>
</svg>
