<svg xmlns="http://www.w3.org/2000/svg" width="24" height="24" viewBox="0 0 24 24">
    <path fill="#FFF" fill-rule="nonzero" d="M12.003 0h-.006C5.381 0 0 5.382 0 12c0 2.625.846 5.058 2.285 7.034L.789 23.49l4.612-1.474A11.896 11.896 0 0 0 12.003 24C18.619 24 24 18.616 24 12c0-6.617-5.38-12-11.997-12zm6.983 16.945c-.29.818-1.439 1.496-2.355 1.694-.627.134-1.446.24-4.203-.903-3.527-1.461-5.798-5.044-5.975-5.277-.17-.232-1.425-1.897-1.425-3.62 0-1.722.875-2.56 1.227-2.92.29-.295.768-.43 1.227-.43.149 0 .282.007.402.013.353.015.53.036.762.593.29.697.995 2.419 1.079 2.596.085.177.17.417.05.65-.112.24-.211.346-.388.55-.177.204-.345.36-.522.579-.162.19-.345.394-.141.747.204.345.909 1.495 1.947 2.42 1.34 1.192 2.425 1.573 2.814 1.735.29.12.634.091.846-.134.269-.289.6-.769.937-1.241.24-.34.543-.381.862-.262.323.113 2.038.96 2.39 1.136.353.177.586.261.671.41.084.148.084.845-.205 1.664z" opacity=".4"/>
</svg>
