<svg xmlns="http://www.w3.org/2000/svg" width="24" height="29" viewBox="0 0 24 29">
    <path fill="#668DBA" fill-rule="nonzero" d="M3.182 0H4.91l1.186 4.396L7.196 0H8.94L6.942 6.537V11H5.225V6.537L3.182 0zm7.913 2.818c-1.343 0-2.233.879-2.233 2.179v3.977c0 1.43.755 2.174 2.233 2.174 1.227 0 2.191-.81 2.191-2.174V4.997c0-1.27-.956-2.18-2.19-2.18zm.637 6.088c0 .442-.228.767-.638.767-.421 0-.665-.34-.665-.767V5.131c0-.444.207-.773.635-.773.468 0 .668.32.668.773v3.775zm5.675-6.02v6.158c-.186.23-.6.608-.896.608-.325 0-.406-.22-.406-.546v-6.22h-1.524v6.78c0 .802.247 1.449 1.065 1.449.46 0 1.101-.238 1.761-1.013v.895h1.524V2.886h-1.524zm2.644 16.456c-.538 0-.65.374-.65.906v.783h1.283v-.784c.002-.523-.11-.905-.633-.905zm-5.644.048c-.1.05-.2.129-.3.235v4.815c.119.126.233.216.345.272.236.119.582.127.742-.08.084-.109.126-.286.126-.533V20.11c0-.26-.051-.458-.154-.593-.177-.23-.504-.255-.759-.127zm5.793-6.17c-3.125-.21-13.28-.21-16.4 0-3.376.228-3.775 2.247-3.8 7.561.025 5.305.42 7.333 3.8 7.561 3.12.21 13.275.21 16.4 0 3.376-.228 3.775-2.248 3.8-7.56-.025-5.305-.42-7.334-3.8-7.562zM5.41 25.91H3.776v-8.954H2.083v-1.52h5.019v1.52H5.41v8.954zm5.816 0H9.774v-.853a3.165 3.165 0 0 1-.835.719c-.783.444-1.857.433-1.857-1.134v-6.458h1.451v5.923c0 .312.076.52.387.52.283 0 .676-.36.853-.578v-5.865h1.452v7.726h.001zm5.588-1.6c0 .955-.36 1.699-1.327 1.699-.531 0-.974-.193-1.379-.693v.594h-1.465V15.436h1.465v3.373c.328-.396.773-.722 1.292-.722 1.063 0 1.416.89 1.416 1.937v4.285h-.002zm5.366-2.081h-2.777v1.458c0 .58.05 1.08.633 1.08.614 0 .65-.408.65-1.08v-.537h1.494v.581c0 1.488-.646 2.39-2.176 2.39-1.386 0-2.095-1-2.095-2.39v-3.469c0-1.34.895-2.273 2.204-2.273 1.393 0 2.065.877 2.065 2.273v1.967h.002z"/>
</svg>
